<svg width="81" height="60" viewBox="0 0 81 60" fill="none" xmlns="http://www.w3.org/2000/svg">
<path d="M36.888 0.0536769L12.2716 42.5322H3.28467C-0.778993 41.5794 -0.231962 35.5186 0.549511 32.6073L17.3512 4.81762C19.8519 0.371274 23.8635 -0.210987 25.5567 0.0536769H36.888Z" fill="#EDF6F9"/>
<path d="M29.8548 15.5365L24.3845 24.2704L41.5769 54.8391C44.3902 58.6502 47.4379 59.8677 48.6101 60H61.8952L39.2324 19.9034C36.7317 15.1395 31.9387 15.0072 29.8548 15.5365Z" fill="#EDF6F9"/>
<path d="M33.7621 44.5172H3.28467L8.75499 54.8391C10.3179 57.6974 13.3136 59.4707 14.616 60H33.7621C38.451 57.7768 38.5812 53.2511 38.0602 51.2661L33.7621 44.5172Z" fill="#EDF6F9"/>
<path d="M41.5769 21.4914L46.6564 30.6223H67.7562L72.0543 21.4914C71.4291 17.9979 67.626 16.0658 65.8025 15.5365H47.8286C44.7028 15.8541 42.3583 19.6388 41.5769 21.4914Z" fill="#EDF6F9"/>
<path d="M73.6173 23.0794L58.3785 50.4721L62.6766 58.412C66.1151 60.9528 69.8401 58.9413 71.2728 57.618L79.869 43.3262C81.432 39.515 81.0413 36.7096 80.6505 35.7833L73.6173 23.0794Z" fill="#EDF6F9"/>
</svg>
